<?xml version="1.0" encoding="UTF-8"?>
<!DOCTYPE svg PUBLIC "-//W3C//DTD SVG 1.1//EN" "http://www.w3.org/Graphics/SVG/1.1/DTD/svg11.dtd">
<!-- Creator: CorelDRAW 2019 (64 Bit) -->
<svg xmlns="http://www.w3.org/2000/svg" xml:space="preserve" width="43.074mm" height="43.074mm" version="1.1" style="shape-rendering:geometricPrecision; text-rendering:geometricPrecision; image-rendering:optimizeQuality; fill-rule:evenodd; clip-rule:evenodd"
viewBox="0 0 4307.4 4307.4"
 xmlns:xlink="http://www.w3.org/1999/xlink">
 <defs>
  <style type="text/css">
   <![CDATA[
    .str0 {stroke:#373435;stroke-width:20;stroke-miterlimit:22.9256}
    .fil0 {fill:#FEFEFE}
    .fil2 {fill:#00598C}
    .fil1 {fill:#008C28}
   ]]>
  </style>
 </defs>
 <g id="Camada_x0020_1">
  <metadata id="CorelCorpID_0Corel-Layer"/>
  <circle class="fil0 str0" cx="2173.55" cy="1858.8" r="1575.77"/>
  <g id="_2689746326384">
   <path class="fil1" d="M1984.26 369.64c845.1,-80.81 1509.77,524.41 1590.29,1272.52 23.23,215.87 -3.1,445.31 -72.5,637.06 -47.87,132.28 -200.06,414.52 -307.27,505.63l-93.47 92.92c-78.09,65.67 -162.93,125.28 -259.28,181.02 -426.66,246.84 -1003.49,236.06 -1423.55,-14.87 -55.44,-33.12 -223.62,-151.53 -257.56,-191.31 -18.66,-21.87 -25.27,-31.85 -44.34,-48.92 -218.52,-195.55 -370.25,-544 -401.86,-840.06 -89.17,-835.16 529.56,-1523.24 1269.54,-1593.99zm-1110.82 2700.34c31.15,14.84 40.23,41.3 67.05,70.62 17.51,19.15 44.97,45.4 58.41,70.48 19.78,13.27 34.32,32.35 42.54,54.92 38.36,22.7 96.25,83.56 115.16,118.22l54.75 58.17c22.62,11.67 16.3,8.45 35.33,27.29 10.45,10.33 14.95,15.39 25.09,25.51 21.66,21.61 38.72,34.18 52.83,59.96 23.08,7.56 12.6,2.59 33.56,22.84 13.02,12.58 18.69,18.1 27.05,31.01 31.74,19.88 37.47,23.96 63.59,56.64 20.37,25.48 35.87,31.36 53.22,59.15 22.85,8.87 39.29,22.16 53.25,44.18 21.5,11.83 116.26,102.01 128.36,120.14 27.17,11.04 22.3,13.56 35.12,36.72 31.58,16.99 54.74,40.68 82.28,64.82 17.84,15.64 55.05,52.75 67.23,69.76l24.9 22.98c16.38,8.65 148.4,130.21 156.89,142.54l14.77 14.38c29.91,27.81 54.83,51.09 83.24,72.38 32,-19.22 51.67,-41.4 82.36,-72.5l15.68 -14.76c16.05,-26.9 132.71,-130.44 161.81,-147.2 4.55,-11.29 -2.83,-8.15 15.31,-13.92 30.01,-49.44 109,-114.91 156.6,-149.66 2.43,-27.01 1.81,-16.64 23.25,-27.1 13.42,-22.16 109.2,-104.55 137.61,-124.81 1.79,-25.42 19.14,-31.71 40.84,-43.83l134.14 -123.25c5.5,-12.98 4.56,-14.21 18.73,-29.62 14.42,-15.69 6.54,-9.24 22.26,-16.94 15.12,-26.71 35.29,-41.56 57.5,-64.21 21.27,-21.7 37.79,-41.34 62.4,-57.05l47.82 -41.28c15.85,-30.67 39.36,-49.24 62.7,-75.85 27.89,-31.81 25.21,-39.51 67.48,-61.01 4.9,-13.81 -1.86,-4.67 11.03,-21.09 21.62,-27.56 2.88,-5.79 16.55,-13.17 15.57,-34.17 55.21,-68.75 82.34,-100.02 24.11,-27.8 50.92,-63.77 75.68,-93.71 86.96,-105.14 212.84,-288.38 276.24,-417.82l107.69 -237.89c16.76,-78.95 47.02,-152.57 65.42,-241.25 19.38,-93.44 25.27,-165.89 34.52,-260.85 31.55,-323.86 -61.54,-700.92 -225.4,-973 -41.89,-69.56 -74.98,-123.02 -120.17,-184.91 -82.67,-113.21 -187.07,-213.68 -296.11,-305.16 -428.97,-359.9 -1077.47,-485.27 -1624.42,-330.2 -377.75,107.1 -753.56,359.31 -975.4,684.78 -94.89,139.2 -189.66,325.33 -240.89,496.45 -177.8,593.79 -25.16,1159.18 309.02,1646.39 21.87,31.88 115.96,142.08 122.79,171.73z"/>
   <g>
    <path class="fil1" d="M1138.94 1901.26c-0.01,91.73 -0.02,183.46 0.02,275.19 0,12.39 0.22,24.71 3.52,36.87 5.47,20.24 15.43,37.69 30.28,52.46 19.78,19.66 39.45,39.43 59.17,59.15 52.6,52.6 105.17,105.19 157.78,157.77 3.5,3.5 6.9,7.16 10.72,10.28 6.42,5.27 13.45,5.31 18.47,0.58 5.1,-4.82 5.17,-11.81 -0.3,-18.24 -3.6,-4.24 -7.71,-8.05 -11.65,-11.98 -68.87,-68.74 -137.75,-137.47 -206.61,-206.22 -4.82,-4.82 -9.68,-9.62 -14.22,-14.69 -30.09,-33.56 -27.67,-87.57 3.47,-118.24 32.09,-31.61 81.85,-34.29 116.68,-5.52 5.24,4.32 9.98,9.27 14.8,14.09 76.72,76.67 153.35,153.43 230.16,230.01 18.31,18.26 10.1,15.04 36.97,15.08 165.94,0.23 309.02,110.02 352.29,270.26 8.3,30.74 12.01,62.05 12.19,93.71 0.4,66.93 0.12,133.86 0.12,200.8 0,1.86 0.04,3.73 -0.03,5.58 -0.37,9.15 -1.82,10.59 -11.47,8.99 -14.05,-2.35 -28.08,-4.88 -41.99,-7.93 -255.86,-56.15 -470.85,-182.17 -643.48,-379.18 -133.4,-152.22 -220.56,-328.19 -263.35,-525.94 -13.9,-64.26 -22.28,-129.35 -24.37,-195.2 -2.56,-80.55 -0.4,-161.11 -1.33,-241.66 -0.48,-42.35 34.74,-79.14 77.34,-83.11 41.59,-3.89 82.29,24.2 92.02,64.97 2.31,9.69 2.87,19.54 2.86,29.51 -0.11,94.21 -0.06,188.41 -0.06,282.61z"/>
    <path class="fil1" d="M2335.99 2957.16c-3.17,-4.3 -2.18,-8.79 -2.18,-13.03 -0.07,-68.17 -0.54,-136.34 0.05,-204.52 1.54,-176.27 122.87,-310.23 269.35,-349.31 30.06,-8.02 60.64,-12.4 91.79,-12.39 5.58,0 11.18,-0.25 16.73,0.05 6.09,0.33 10.77,-1.84 14.69,-6.38 2.41,-2.81 5.2,-5.29 7.84,-7.92 49.96,-49.97 99.91,-99.93 149.88,-149.89 29.8,-29.79 59.39,-59.81 89.52,-89.25 25.26,-24.69 55.59,-32.4 89.06,-21.15 33.49,11.26 52.91,35.91 58.19,70.71 3.73,24.52 -3.43,46.65 -18.95,65.92 -3.86,4.81 -8.46,9.05 -12.84,13.42 -70.53,70.58 -141.1,141.13 -211.63,211.71 -3.94,3.94 -8.03,7.82 -11.29,12.27 -3.96,5.43 -2.7,12.66 2.11,16.78 4.08,3.5 10.73,3.89 15.51,0.43 2.99,-2.16 5.62,-4.87 8.24,-7.49 73.64,-73.61 147.24,-147.26 220.89,-220.85 23.62,-23.59 34.65,-52.13 34.64,-85.35 -0.06,-184.7 -0.03,-369.4 -0.01,-554.09 0,-7.43 -0.09,-14.89 0.34,-22.3 2.57,-45.34 40.03,-81.09 85.96,-80.71 53.99,0.45 84.94,43.37 85.87,80.72 0.07,3.1 0.23,6.2 0.23,9.29 -0.13,72.52 0.81,145.05 -0.63,217.54 -2.7,136.34 -29.81,268.08 -79.58,394.98 -65.05,165.92 -162.77,309.96 -293.19,431.4 -156.75,145.96 -339.82,242.55 -549.07,289.08 -15.11,3.36 -30.3,6.32 -45.49,9.34 -5.39,1.07 -10.84,2.27 -16.03,0.99z"/>
    <path class="fil2" d="M1891.09 1775.69c11.39,-15.22 26.24,-27.21 42.21,-37.95 17.08,-11.48 35.69,-19.84 55.21,-26.16 63.77,-20.64 128.88,-29.37 195.94,-23.29 42.83,3.89 84.43,12.6 124.81,27.2 27.14,9.8 51.39,24.45 72.4,44.28 5.34,5.05 10.86,10.01 15.06,18.2 -3.28,2.69 -6.75,5.28 -9.93,8.19 -52.83,48.36 -78.32,108.86 -78.64,179.98 -0.41,89.21 -0.11,178.42 -0.11,267.64 0,74.33 -0.2,148.68 0.23,223.02 0.06,11.28 -3.07,19.67 -10.35,28.36 -50.69,60.56 -80.07,130.25 -87.94,208.99 -1.6,16.06 -2.39,32.1 -2.38,48.22 0.06,70.01 0.09,140.01 0,210.01 -0.03,22.69 2.34,19.69 -19.2,21.21 -33.45,2.35 -66.84,1.63 -100.24,-0.56 -8.7,-0.58 -9.66,-1.56 -9.95,-9.76 -0.17,-4.95 -0.06,-9.91 -0.06,-14.87 0,-70 -0.25,-140 0.08,-210.01 0.26,-57.2 -10.43,-111.97 -33.92,-164.19 -14.32,-31.82 -32.11,-61.55 -55.03,-87.86 -8.39,-9.61 -11.16,-19.42 -11.12,-31.9 0.38,-118.94 0.23,-237.89 0.23,-356.84 0,-45.22 0.07,-90.45 -0.03,-135.67 -0.13,-56.64 -18.13,-107 -54.16,-150.67 -7.85,-9.51 -17.18,-17.8 -25.87,-26.61 -2.56,-2.59 -6.1,-4.31 -7.24,-8.96z"/>
    <path class="fil2" d="M1813.4 2422.4c-7.88,-4.87 -12.55,-7.73 -17.2,-10.62 -52.4,-32.61 -109.11,-52.41 -170.76,-57.79 -12.36,-1.07 -24.67,-2.58 -37.07,-1.96 -7.91,0.4 -14.61,-1.18 -19.66,-7.8 -1.87,-2.44 -4.34,-4.41 -6.53,-6.6 -67.91,-67.9 -135.81,-135.81 -203.72,-203.72 -2.19,-2.19 -4.21,-4.59 -6.6,-6.53 -5.79,-4.68 -7.57,-10.48 -7.51,-17.93 0.37,-50.8 -0.48,-101.62 0.59,-152.41 1.85,-87.79 55.98,-162.74 138.56,-192.99 42.68,-15.63 86.87,-24.26 132.27,-27.54 67.77,-4.89 133.35,4.81 197.26,27.19 11.71,4.1 23.03,9.14 33.65,15.59 4.1,2.5 4.57,4.78 2.21,9.26 -1.44,2.73 -3.15,5.33 -4.67,8.03 -20.64,37.04 -30.79,76.8 -30.79,119.16 -0.03,161.08 -0.02,322.17 -0.03,483.26 0,6.73 0,13.45 0,23.4z"/>
    <path class="fil2" d="M2942.02 2030.3c0,25.4 -0.22,50.81 0.11,76.21 0.12,8.55 -2.05,15.16 -8.35,21.44 -71.98,71.73 -143.81,143.61 -215.29,215.84 -7.03,7.09 -14.34,8.16 -23.26,8.26 -66.94,0.75 -129.82,17.06 -188.23,49.99 -9.17,5.16 -18.02,10.88 -27.16,16.09 -2.55,1.46 -5.06,0.17 -5.28,-2.8 -0.45,-6.16 -0.52,-12.35 -0.52,-18.54 -0.03,-155.53 0.06,-311.07 -0.09,-466.6 -0.02,-27.29 -1.81,-54.43 -9.45,-80.93 -5.87,-20.37 -14.08,-39.61 -24.8,-57.88 -4.89,-8.36 -4.51,-9.12 4.31,-14.1 11.9,-6.73 24.44,-12.1 37.4,-16.33 61.87,-20.24 125.15,-29.32 190.35,-24.43 44.14,3.3 87.2,11.38 128.71,26.63 75.32,27.65 121,81.36 137.89,159.57 2.87,13.32 3.7,26.98 3.67,40.65 -0.05,22.31 -0.01,44.62 -0.01,66.93z"/>
    <path class="fil2" d="M1492.67 1473.86c0.86,-46.77 6.93,-83.76 22.45,-118.86 7.06,-15.97 16.11,-30.67 27.74,-43.7 25.74,-28.81 58.72,-42.42 96.59,-45.41 18.65,-1.47 37.15,0.08 55.26,4.72 34.52,8.85 61.25,28.71 80.87,58.32 13.85,20.9 22.9,43.88 28.25,68.21 7.75,35.24 11.61,70.78 5.77,106.85 -7.39,45.64 -25.07,86.54 -55.14,121.83 -12.55,14.73 -27.16,27.15 -44.28,36.29 -39.11,20.89 -78.24,20.49 -117,-0.9 -21.51,-11.87 -38.84,-28.62 -53.12,-48.4 -31.75,-44.02 -47.75,-93.2 -47.39,-138.95z"/>
    <path class="fil2" d="M1983.8 1419.16c0.28,-31.81 5.06,-62.86 15.29,-93.01 5.8,-17.08 13.52,-33.22 24.01,-47.94 20.2,-28.34 46.83,-47.17 81.05,-54.87 29.59,-6.65 59.1,-6.23 88.07,2.36 34.17,10.13 59.68,31.82 77.99,62.16 14.92,24.72 23.35,51.75 28.31,79.99 7.38,42.05 7.06,83.76 -5.93,124.83 -10.77,34.07 -27.08,65.03 -51.65,91.3 -13.65,14.59 -29.04,26.9 -47.38,35.17 -35.58,16.06 -70.84,15.17 -105.51,-2.6 -24.81,-12.7 -44.13,-31.75 -59.79,-54.47 -29.63,-42.97 -44.97,-90.52 -44.46,-142.92z"/>
    <path class="fil2" d="M2636.87 1267.77c14.43,0.6 27.93,1.08 41.33,4.34 33.36,8.09 59.74,26.14 79.65,53.88 15.02,20.9 24.61,44.24 30.65,69.12 10.67,43.87 13.78,87.96 2.64,132.24 -9.98,39.65 -27.63,75.37 -55.63,105.57 -12.3,13.27 -26.21,24.57 -42.43,32.67 -36.17,18.08 -72.59,18.32 -108.88,0.43 -19.16,-9.44 -35.36,-22.88 -48.89,-39.25 -35.92,-43.44 -55.13,-93.41 -56.62,-149.83 -0.99,-38.09 4.59,-75.24 18.38,-110.95 5.61,-14.5 12.72,-28.19 21.94,-40.72 25.33,-34.45 59.41,-53.27 102,-56.66 5.55,-0.44 11.12,-0.59 15.86,-0.84z"/>
    <path class="fil2" d="M1874.94 1799.44c10.76,6.31 19.01,15.62 27.02,24.98 33.55,39.2 50.33,84.86 50.8,136.33 0.39,42.75 0.08,85.5 0.08,128.25 0,161.71 0,323.41 0,485.12 0,6.65 0,13.29 0,20.04 -4.47,-0.41 -4.87,-3.77 -6.03,-6.45 -22.53,-51.91 -54.76,-96.95 -96.85,-134.72 -7.55,-6.78 -10.8,-13.54 -10.78,-23.8 0.3,-172.87 0.15,-345.72 0.28,-518.58 0.03,-35.36 9.16,-68.56 26.09,-99.59 1.77,-3.24 3.91,-6.29 6.08,-9.29 0.67,-0.93 1.98,-1.4 3.31,-2.29z"/>
    <path class="fil2" d="M2334 2592.46c0,-5.23 0,-9.95 0,-14.67 0,-204.39 -0.09,-408.79 0.07,-613.19 0.05,-60.52 21.33,-112.48 64.88,-154.87 13.99,-13.64 14.7,-13.25 24.26,4.6 18.01,33.6 24.66,69.78 24.82,107.46 0.11,25.39 0.02,50.79 0.02,76.18 0,141.22 0,282.44 0,423.66 0,3.1 -0.28,6.23 0.07,9.29 0.91,8.1 -2.16,13.86 -8.36,19.26 -42.72,37.15 -75.12,82 -98.36,133.55 -1.44,3.17 -2.1,6.91 -7.4,8.73z"/>
    <path class="fil1" d="M3119.45 2109.41c-45.7,-41.8 -94.64,-47.92 -146.75,-18.28 -4.9,-2 -3.59,-5.52 -3.96,-8.32 -0.25,-1.82 -0.07,-3.7 -0.07,-5.57 -0.35,-138.15 -0.71,-276.31 -0.97,-414.47 -0.01,-6.79 0.57,-13.61 1.32,-20.36 3.88,-35.16 37.75,-68.47 81.62,-65.21 38.19,2.84 69.2,34.31 70.9,73.17 0.11,2.47 0.04,4.95 0.04,7.43 -0.02,144.99 0,289.97 -0.08,434.95 -0.02,4.78 1.13,9.73 -2.05,16.66z"/>
    <path class="fil1" d="M1318.79 2095.01c-18.6,-11.52 -34.92,-18.53 -52.9,-21.18 -18.22,-2.68 -35.77,-0.05 -52.99,5.81 -17.03,5.8 -31.42,16.08 -44.07,28.24 -4.14,-3.73 -3.1,-6.96 -3.1,-9.83 -0.07,-147.98 -0.16,-295.96 0.01,-443.94 0.05,-36.08 22.1,-64.87 55.86,-74.45 46.29,-13.13 93.71,20.24 96.88,68.23 0.33,4.94 0.3,9.91 0.3,14.86 0.02,138.07 0.01,276.15 0.01,414.22 0,4.91 0,9.82 0,18.04z"/>
    <path class="fil1" d="M1980.22 2520.16c4.17,-0.03 5.39,3.12 7.03,5.48 31.67,45.42 51.83,95.41 60.67,150.14 3.68,22.76 4.4,45.61 4.5,68.49 0.32,69.97 0.12,139.95 0.12,209.93 0,2.48 0.06,4.95 -0.05,7.43 -0.33,7.6 -1.52,8.84 -8.64,8.36 -8.65,-0.57 -17.3,-1.15 -25.93,-2.04 -10.46,-1.08 -20.9,-2.36 -31.33,-3.78 -5.95,-0.8 -7.63,-2.61 -8.01,-8.28 -0.28,-4.31 -0.17,-8.66 -0.17,-12.99 -0.01,-135.62 -0.04,-271.24 0.05,-406.86 0,-5.31 -1.61,-11.01 1.76,-15.88z"/>
    <path class="fil1" d="M2308.06 2519.02c0,6.08 0.02,12.15 0,18.23 -0.09,135.61 -0.19,271.22 -0.3,406.82 0,3.71 0.12,7.44 -0.07,11.15 -0.35,7 -1.44,8.36 -8.94,9.18 -19.07,2.09 -38.16,3.99 -57.26,5.79 -6.16,0.57 -7.5,-0.83 -7.79,-7.23 -0.17,-3.71 -0.07,-7.43 -0.07,-11.14 -0.01,-73.69 -0.35,-147.38 0.08,-221.06 0.43,-74.51 21.99,-142.59 64.32,-203.99 2.06,-2.98 4.43,-5.74 6.66,-8.6 1.13,0.28 2.25,0.56 3.37,0.85z"/>
    <path class="fil1" d="M2941.4 1847.05c-5.71,-1.93 -6.59,-5.93 -8.48,-8.93 -30,-48.14 -72.26,-80.87 -125.37,-100.01 -22.01,-7.93 -22.76,-9.57 -14.47,-31.51 12.6,-33.35 46.15,-54.17 80.69,-50.09 35.28,4.17 62.64,31.13 67.47,66.62 0.59,4.28 0.81,8.64 0.82,12.96 0.06,34.7 0.04,69.4 0.01,104.11 -0.01,1.76 -0.34,3.52 -0.67,6.85z"/>
    <path class="fil1" d="M1346.43 1847.9c-2.42,-0.76 -1.85,-2.85 -1.85,-4.45 -0.05,-37.12 -0.29,-74.24 0.07,-111.35 0.22,-22.85 9.47,-42 26.67,-57.06 43.22,-37.87 112.14,-15.63 125.01,40.32 0.83,3.59 1.15,7.34 1.32,11.02 0.15,3.25 -0.96,6.04 -4.47,7.21 -4.1,1.36 -8.2,2.78 -12.28,4.19 -54.67,18.86 -97.55,52.54 -127.97,101.86 -1.86,3 -2.94,6.63 -6.5,8.26z"/>
   </g>
  </g>
 </g>
</svg>
